<mxfile modified="2023-03-07T05:28:07.506Z" host="app.diagrams.net" agent="5.0 (Windows NT 10.0; Win64; x64) AppleWebKit/537.36 (KHTML, like Gecko) Chrome/110.0.0.0 Safari/537.36" etag="Yj4X9_bjNNFoeD8SmROZ" version="20.8.23" type="github">
  <diagram id="Ht1M8jgEwFfnCIfOTk4-" name="Page-1">
    <mxGraphModel dx="2743" dy="1712" grid="1" gridSize="10" guides="1" tooltips="1" connect="1" arrows="1" fold="1" page="1" pageScale="1" pageWidth="1169" pageHeight="827" math="0" shadow="0">
      <root>
        <mxCell id="0" />
        <mxCell id="1" parent="0" />
        <mxCell id="BePM_J13rFGYLzdqfS_X-57" value="AWS Cloud" style="sketch=0;outlineConnect=0;gradientColor=none;html=1;whiteSpace=wrap;fontSize=12;fontStyle=0;shape=mxgraph.aws4.group;grIcon=mxgraph.aws4.group_aws_cloud;strokeColor=#0C0D0D;fillColor=none;verticalAlign=top;align=left;spacingLeft=30;fontColor=#AAB7B8;dashed=0;" vertex="1" parent="1">
          <mxGeometry x="90" y="-620" width="1800" height="3030" as="geometry" />
        </mxCell>
        <mxCell id="BePM_J13rFGYLzdqfS_X-4" value="VPC - PRIV" style="sketch=0;outlineConnect=0;gradientColor=none;html=1;whiteSpace=wrap;fontSize=12;fontStyle=0;shape=mxgraph.aws4.group;grIcon=mxgraph.aws4.group_vpc;strokeColor=#FF9933;fillColor=none;verticalAlign=top;align=left;spacingLeft=30;fontColor=#879196;dashed=0;" vertex="1" parent="1">
          <mxGeometry x="190" y="-200" width="970" height="2255" as="geometry" />
        </mxCell>
        <mxCell id="BePM_J13rFGYLzdqfS_X-27" value="" style="whiteSpace=wrap;html=1;aspect=fixed;strokeColor=#990099;dashed=1;fillColor=none;" vertex="1" parent="1">
          <mxGeometry x="390" y="100" width="290" height="290" as="geometry" />
        </mxCell>
        <mxCell id="BePM_J13rFGYLzdqfS_X-5" value="VPC-PUB&lt;br&gt;" style="sketch=0;outlineConnect=0;gradientColor=none;html=1;whiteSpace=wrap;fontSize=12;fontStyle=0;shape=mxgraph.aws4.group;grIcon=mxgraph.aws4.group_vpc;strokeColor=#003366;fillColor=none;verticalAlign=top;align=left;spacingLeft=30;fontColor=#879196;dashed=0;" vertex="1" parent="1">
          <mxGeometry x="245" y="-550" width="365" height="190" as="geometry" />
        </mxCell>
        <mxCell id="BePM_J13rFGYLzdqfS_X-13" style="edgeStyle=orthogonalEdgeStyle;rounded=0;orthogonalLoop=1;jettySize=auto;html=1;" edge="1" parent="1" source="BePM_J13rFGYLzdqfS_X-1" target="BePM_J13rFGYLzdqfS_X-8">
          <mxGeometry relative="1" as="geometry">
            <Array as="points">
              <mxPoint x="110" y="-455" />
              <mxPoint x="110" y="-413" />
            </Array>
          </mxGeometry>
        </mxCell>
        <mxCell id="BePM_J13rFGYLzdqfS_X-1" value="CLIENT - A" style="aspect=fixed;perimeter=ellipsePerimeter;html=1;align=center;shadow=0;dashed=0;spacingTop=3;image;image=img/lib/active_directory/web_server.svg;" vertex="1" parent="1">
          <mxGeometry x="30" y="-90" width="40" height="50" as="geometry" />
        </mxCell>
        <mxCell id="BePM_J13rFGYLzdqfS_X-20" style="edgeStyle=orthogonalEdgeStyle;rounded=0;orthogonalLoop=1;jettySize=auto;html=1;" edge="1" parent="1" source="BePM_J13rFGYLzdqfS_X-2" target="BePM_J13rFGYLzdqfS_X-8">
          <mxGeometry relative="1" as="geometry" />
        </mxCell>
        <mxCell id="BePM_J13rFGYLzdqfS_X-2" value="PUBLIC WEB" style="sketch=0;outlineConnect=0;fontColor=#232F3E;gradientColor=none;strokeColor=#ffffff;fillColor=#232F3E;dashed=0;verticalLabelPosition=middle;verticalAlign=bottom;align=center;html=1;whiteSpace=wrap;fontSize=10;fontStyle=1;spacing=3;shape=mxgraph.aws4.productIcon;prIcon=mxgraph.aws4.ec2;" vertex="1" parent="1">
          <mxGeometry x="510" y="-500" width="70" height="100" as="geometry" />
        </mxCell>
        <mxCell id="BePM_J13rFGYLzdqfS_X-7" style="edgeStyle=orthogonalEdgeStyle;rounded=0;orthogonalLoop=1;jettySize=auto;html=1;" edge="1" parent="1" source="BePM_J13rFGYLzdqfS_X-3" target="BePM_J13rFGYLzdqfS_X-6">
          <mxGeometry relative="1" as="geometry" />
        </mxCell>
        <mxCell id="BePM_J13rFGYLzdqfS_X-3" value="Amazon EC2" style="sketch=0;outlineConnect=0;fontColor=#232F3E;gradientColor=none;strokeColor=#ffffff;fillColor=#232F3E;dashed=0;verticalLabelPosition=middle;verticalAlign=bottom;align=center;html=1;whiteSpace=wrap;fontSize=10;fontStyle=1;spacing=3;shape=mxgraph.aws4.productIcon;prIcon=mxgraph.aws4.ec2;" vertex="1" parent="1">
          <mxGeometry x="300" y="-115" width="80" height="100" as="geometry" />
        </mxCell>
        <mxCell id="BePM_J13rFGYLzdqfS_X-16" style="edgeStyle=orthogonalEdgeStyle;rounded=0;orthogonalLoop=1;jettySize=auto;html=1;entryX=0.855;entryY=0.855;entryDx=0;entryDy=0;entryPerimeter=0;startArrow=none;" edge="1" parent="1" target="BePM_J13rFGYLzdqfS_X-8">
          <mxGeometry relative="1" as="geometry">
            <mxPoint x="240.00000000000023" y="-412" as="sourcePoint" />
            <Array as="points" />
          </mxGeometry>
        </mxCell>
        <mxCell id="BePM_J13rFGYLzdqfS_X-41" style="edgeStyle=orthogonalEdgeStyle;rounded=0;orthogonalLoop=1;jettySize=auto;html=1;entryX=0.5;entryY=1;entryDx=0;entryDy=0;entryPerimeter=0;" edge="1" parent="1" source="BePM_J13rFGYLzdqfS_X-6" target="BePM_J13rFGYLzdqfS_X-8">
          <mxGeometry relative="1" as="geometry" />
        </mxCell>
        <mxCell id="BePM_J13rFGYLzdqfS_X-6" value="NAT gw" style="sketch=0;outlineConnect=0;fontColor=#232F3E;gradientColor=none;fillColor=#4D27AA;strokeColor=none;dashed=0;verticalLabelPosition=bottom;verticalAlign=top;align=center;html=1;fontSize=12;fontStyle=0;aspect=fixed;pointerEvents=1;shape=mxgraph.aws4.nat_gateway;" vertex="1" parent="1">
          <mxGeometry x="312.5" y="-520" width="55" height="55" as="geometry" />
        </mxCell>
        <mxCell id="BePM_J13rFGYLzdqfS_X-8" value="INTERNET&lt;br&gt;GW" style="outlineConnect=0;dashed=0;verticalLabelPosition=bottom;verticalAlign=top;align=center;html=1;shape=mxgraph.aws3.internet_gateway;fillColor=#F58534;gradientColor=none;strokeColor=#FF9933;" vertex="1" parent="1">
          <mxGeometry x="170" y="-437" width="50" height="48" as="geometry" />
        </mxCell>
        <mxCell id="BePM_J13rFGYLzdqfS_X-17" value="DATA&lt;br&gt;BASE" style="shape=cylinder3;whiteSpace=wrap;html=1;boundedLbl=1;backgroundOutline=1;size=15;strokeColor=#FF9933;" vertex="1" parent="1">
          <mxGeometry x="740" y="-180" width="60" height="80" as="geometry" />
        </mxCell>
        <mxCell id="BePM_J13rFGYLzdqfS_X-36" style="edgeStyle=orthogonalEdgeStyle;rounded=0;orthogonalLoop=1;jettySize=auto;html=1;" edge="1" parent="1" source="BePM_J13rFGYLzdqfS_X-23" target="BePM_J13rFGYLzdqfS_X-32">
          <mxGeometry relative="1" as="geometry" />
        </mxCell>
        <mxCell id="BePM_J13rFGYLzdqfS_X-23" value="WEB SOCKET SERVER" style="outlineConnect=0;dashed=0;verticalLabelPosition=bottom;verticalAlign=top;align=center;html=1;shape=mxgraph.aws3.ec2;fillColor=#F58534;gradientColor=none;strokeColor=#FF9933;" vertex="1" parent="1">
          <mxGeometry x="600" y="224" width="50" height="76" as="geometry" />
        </mxCell>
        <mxCell id="BePM_J13rFGYLzdqfS_X-25" style="edgeStyle=orthogonalEdgeStyle;rounded=0;orthogonalLoop=1;jettySize=auto;html=1;entryX=0.145;entryY=0.855;entryDx=0;entryDy=0;entryPerimeter=0;" edge="1" parent="1" source="BePM_J13rFGYLzdqfS_X-24" target="BePM_J13rFGYLzdqfS_X-8">
          <mxGeometry relative="1" as="geometry" />
        </mxCell>
        <mxCell id="BePM_J13rFGYLzdqfS_X-24" value="CLIENT-B&lt;br&gt;" style="aspect=fixed;perimeter=ellipsePerimeter;html=1;align=center;shadow=0;dashed=0;spacingTop=3;image;image=img/lib/active_directory/web_server.svg;" vertex="1" parent="1">
          <mxGeometry x="30" y="10" width="40" height="50" as="geometry" />
        </mxCell>
        <mxCell id="BePM_J13rFGYLzdqfS_X-26" value="Elastic BeansTalk Container" style="outlineConnect=0;dashed=0;verticalLabelPosition=bottom;verticalAlign=top;align=center;html=1;shape=mxgraph.aws3.elastic_beanstalk;fillColor=#F58534;gradientColor=none;strokeColor=#FF9933;" vertex="1" parent="1">
          <mxGeometry x="350" y="60" width="70" height="60" as="geometry" />
        </mxCell>
        <mxCell id="BePM_J13rFGYLzdqfS_X-37" style="edgeStyle=orthogonalEdgeStyle;rounded=0;orthogonalLoop=1;jettySize=auto;html=1;" edge="1" parent="1" source="BePM_J13rFGYLzdqfS_X-32" target="BePM_J13rFGYLzdqfS_X-24">
          <mxGeometry relative="1" as="geometry" />
        </mxCell>
        <mxCell id="BePM_J13rFGYLzdqfS_X-40" style="edgeStyle=orthogonalEdgeStyle;rounded=0;orthogonalLoop=1;jettySize=auto;html=1;entryX=1;entryY=0.5;entryDx=0;entryDy=0;" edge="1" parent="1" source="BePM_J13rFGYLzdqfS_X-32" target="BePM_J13rFGYLzdqfS_X-1">
          <mxGeometry relative="1" as="geometry" />
        </mxCell>
        <mxCell id="BePM_J13rFGYLzdqfS_X-32" value="Application&lt;br&gt;Load&lt;br&gt;Balancer" style="outlineConnect=0;dashed=0;verticalLabelPosition=bottom;verticalAlign=top;align=center;html=1;shape=mxgraph.aws3.application_load_balancer;fillColor=#F58534;gradientColor=none;strokeColor=#990099;" vertex="1" parent="1">
          <mxGeometry x="460" y="224" width="69" height="72" as="geometry" />
        </mxCell>
        <mxCell id="BePM_J13rFGYLzdqfS_X-34" style="edgeStyle=orthogonalEdgeStyle;rounded=0;orthogonalLoop=1;jettySize=auto;html=1;" edge="1" parent="1" source="BePM_J13rFGYLzdqfS_X-33" target="BePM_J13rFGYLzdqfS_X-23">
          <mxGeometry relative="1" as="geometry">
            <Array as="points">
              <mxPoint x="930" y="262" />
              <mxPoint x="930" y="262" />
            </Array>
          </mxGeometry>
        </mxCell>
        <mxCell id="BePM_J13rFGYLzdqfS_X-59" value="" style="edgeStyle=orthogonalEdgeStyle;rounded=0;orthogonalLoop=1;jettySize=auto;html=1;" edge="1" parent="1" source="BePM_J13rFGYLzdqfS_X-33" target="BePM_J13rFGYLzdqfS_X-58">
          <mxGeometry relative="1" as="geometry" />
        </mxCell>
        <mxCell id="BePM_J13rFGYLzdqfS_X-33" value="Amazon ElastiCache for Redis" style="sketch=0;outlineConnect=0;fontColor=#232F3E;gradientColor=none;strokeColor=#ffffff;fillColor=#232F3E;dashed=0;verticalLabelPosition=middle;verticalAlign=bottom;align=center;html=1;whiteSpace=wrap;fontSize=10;fontStyle=1;spacing=3;shape=mxgraph.aws4.productIcon;prIcon=mxgraph.aws4.elasticache_for_redis;" vertex="1" parent="1">
          <mxGeometry x="1000" y="200" width="80" height="120" as="geometry" />
        </mxCell>
        <mxCell id="BePM_J13rFGYLzdqfS_X-46" style="edgeStyle=orthogonalEdgeStyle;rounded=0;orthogonalLoop=1;jettySize=auto;html=1;" edge="1" parent="1" source="BePM_J13rFGYLzdqfS_X-42" target="BePM_J13rFGYLzdqfS_X-5">
          <mxGeometry relative="1" as="geometry">
            <Array as="points">
              <mxPoint x="475" y="-350" />
              <mxPoint x="475" y="-350" />
            </Array>
          </mxGeometry>
        </mxCell>
        <mxCell id="BePM_J13rFGYLzdqfS_X-47" style="edgeStyle=orthogonalEdgeStyle;rounded=0;orthogonalLoop=1;jettySize=auto;html=1;" edge="1" parent="1" source="BePM_J13rFGYLzdqfS_X-42" target="BePM_J13rFGYLzdqfS_X-4">
          <mxGeometry relative="1" as="geometry">
            <Array as="points">
              <mxPoint x="475" y="-230" />
              <mxPoint x="475" y="-230" />
            </Array>
          </mxGeometry>
        </mxCell>
        <mxCell id="BePM_J13rFGYLzdqfS_X-42" value="" style="outlineConnect=0;dashed=0;verticalLabelPosition=bottom;verticalAlign=top;align=center;html=1;shape=mxgraph.aws3.vpc_peering;fillColor=#F58536;gradientColor=none;strokeColor=#990099;direction=east;" vertex="1" parent="1">
          <mxGeometry x="450" y="-330" width="50" height="52" as="geometry" />
        </mxCell>
        <mxCell id="BePM_J13rFGYLzdqfS_X-61" style="edgeStyle=orthogonalEdgeStyle;rounded=0;orthogonalLoop=1;jettySize=auto;html=1;" edge="1" parent="1" source="BePM_J13rFGYLzdqfS_X-50" target="BePM_J13rFGYLzdqfS_X-33">
          <mxGeometry relative="1" as="geometry">
            <Array as="points">
              <mxPoint x="-20" y="370" />
              <mxPoint x="1040" y="370" />
            </Array>
          </mxGeometry>
        </mxCell>
        <mxCell id="BePM_J13rFGYLzdqfS_X-50" value="onPremise&lt;br&gt;Redis" style="outlineConnect=0;dashed=0;verticalLabelPosition=bottom;verticalAlign=top;align=center;html=1;shape=mxgraph.aws3.redis;fillColor=#2E73B8;gradientColor=none;strokeColor=#990099;" vertex="1" parent="1">
          <mxGeometry x="-40" y="541" width="40" height="50" as="geometry" />
        </mxCell>
        <mxCell id="BePM_J13rFGYLzdqfS_X-60" style="edgeStyle=orthogonalEdgeStyle;rounded=0;orthogonalLoop=1;jettySize=auto;html=1;" edge="1" parent="1" source="BePM_J13rFGYLzdqfS_X-54" target="BePM_J13rFGYLzdqfS_X-23">
          <mxGeometry relative="1" as="geometry" />
        </mxCell>
        <mxCell id="BePM_J13rFGYLzdqfS_X-54" value="Redis MySQLDB instance&lt;br&gt;(Source DB)" style="sketch=0;points=[[0,0,0],[0.25,0,0],[0.5,0,0],[0.75,0,0],[1,0,0],[0,1,0],[0.25,1,0],[0.5,1,0],[0.75,1,0],[1,1,0],[0,0.25,0],[0,0.5,0],[0,0.75,0],[1,0.25,0],[1,0.5,0],[1,0.75,0]];outlineConnect=0;fontColor=#232F3E;gradientColor=#4D72F3;gradientDirection=north;fillColor=#3334B9;strokeColor=#ffffff;dashed=0;verticalLabelPosition=bottom;verticalAlign=top;align=center;html=1;fontSize=12;fontStyle=0;aspect=fixed;shape=mxgraph.aws4.resourceIcon;resIcon=mxgraph.aws4.rds;" vertex="1" parent="1">
          <mxGeometry x="820" y="60" width="60" height="60" as="geometry" />
        </mxCell>
        <mxCell id="BePM_J13rFGYLzdqfS_X-55" value="" style="outlineConnect=0;dashed=0;verticalLabelPosition=bottom;verticalAlign=top;align=center;html=1;shape=mxgraph.aws3.vpn_gateway;fillColor=#F58534;gradientColor=none;strokeColor=#990099;" vertex="1" parent="1">
          <mxGeometry x="160.5" y="530" width="69" height="72" as="geometry" />
        </mxCell>
        <mxCell id="BePM_J13rFGYLzdqfS_X-56" value="" style="points=[];aspect=fixed;html=1;align=center;shadow=0;dashed=0;image;image=img/lib/allied_telesis/security/Router_VPN.svg;strokeColor=#990099;fillColor=none;" vertex="1" parent="1">
          <mxGeometry x="-200" y="-20" width="55.800000000000004" height="39.6" as="geometry" />
        </mxCell>
        <mxCell id="BePM_J13rFGYLzdqfS_X-58" value="s3" style="sketch=0;points=[[0,0,0],[0.25,0,0],[0.5,0,0],[0.75,0,0],[1,0,0],[0,1,0],[0.25,1,0],[0.5,1,0],[0.75,1,0],[1,1,0],[0,0.25,0],[0,0.5,0],[0,0.75,0],[1,0.25,0],[1,0.5,0],[1,0.75,0]];outlineConnect=0;fontColor=#232F3E;gradientColor=#60A337;gradientDirection=north;fillColor=#277116;strokeColor=#ffffff;dashed=0;verticalLabelPosition=bottom;verticalAlign=top;align=center;html=1;fontSize=12;fontStyle=0;aspect=fixed;shape=mxgraph.aws4.resourceIcon;resIcon=mxgraph.aws4.s3;" vertex="1" parent="1">
          <mxGeometry x="1002" y="463" width="78" height="78" as="geometry" />
        </mxCell>
      </root>
    </mxGraphModel>
  </diagram>
</mxfile>
